<svg xmlns="http://www.w3.org/2000/svg" id="logo-default_svg__logo" focusable="false" viewBox="2 1.99 56.64 56.02" role="presentation"><title>PostNL logo</title><defs><radialGradient id="logo-default_svg__gradient" cx="22.53" cy="23.41" r="38.18" gradientTransform="matrix(.92633 -.3767 .33527 .82444 -6.22 12.52)" gradientUnits="userSpaceOnUse"><stop offset="0" stop-color="#f1a100"/><stop offset=".23" stop-color="#f09e00"/><stop offset=".41" stop-color="#ee9401"/><stop offset=".57" stop-color="#eb8303"/><stop offset=".73" stop-color="#e66c05"/><stop offset=".87" stop-color="#e04e09"/><stop offset=".93" stop-color="#dd3f0a"/></radialGradient></defs><path d="M14.36 2c6.81 0 17.74 4.32 25 8.33 8 4.41 19.27 13.42 19.28 19.63 0 6.61-11.54 15.36-19.28 19.63C32.35 53.47 21.64 58 14.61 58a9.49 9.49 0 0 1-4.52-.94C4.53 54 2 40.86 2 30a67.93 67.93 0 0 1 1.94-16.19c1.48-5.75 3.61-9.54 6.15-10.94A8.91 8.91 0 0 1 14.36 2z" fill="#bbbbbc"/><path class="logo-default_svg__filledPath" d="M56.78 30c0-4.71-8.87-12.88-18.32-18.09-10.89-6-23.28-9.55-27.37-7.3C6.44 7.14 3.89 20 3.89 30s2.4 22.74 7.2 25.39c4.36 2.4 16.21-1.14 27.37-7.29 9.6-5.33 18.31-13.19 18.32-18.1z" fill="url(#logo-default_svg__gradient)"/><path d="M25.14 31a3.79 3.79 0 0 1-4.08 4A3.79 3.79 0 0 1 17 31a3.76 3.76 0 0 1 4.08-4.08A3.76 3.76 0 0 1 25.14 31zm-2.32 0c0-1.49-.75-2.14-1.76-2.14s-1.77.65-1.77 2.14.76 2.14 1.77 2.14 1.76-.81 1.76-2.14zm12.94-6.05c0-.06 0-.08-.09-.08A6.73 6.73 0 0 0 34 26a1.76 1.76 0 0 0-.44 1.17v5c0 2.18 1.25 2.86 2.6 2.86a3.58 3.58 0 0 0 1.62-.28.26.26 0 0 0 .12-.22v-1.42a.08.08 0 0 0-.1-.11 5.36 5.36 0 0 1-.92.2c-.7 0-1.12-.33-1.12-1.43v-2.86a.07.07 0 0 1 .08-.07h1.88a.08.08 0 0 0 .08-.08v-1.49a.25.25 0 0 0-.25-.24h-1.71a.07.07 0 0 1-.08-.08zM8.47 27.28a.25.25 0 0 1 .25-.28h3c2.93 0 4.44 1.75 4.44 4s-1.69 3.85-4.48 3.85h-.87a.08.08 0 0 0-.08.08v3.68c0 .06 0 .08-.09.08a6.54 6.54 0 0 1-1.69-1.16 1.72 1.72 0 0 1-.45-1.17zm5.45 3.66c0-1-.62-1.87-2.27-1.87h-.87a.09.09 0 0 0-.08.08v3.63a.08.08 0 0 0 .08.07h.91c1.97 0 2.23-1.36 2.23-1.91zm17.51-.32a4.74 4.74 0 0 0-1.57-.55l-.54-.07c-.67-.15-1.19-.26-1.19-.69s.35-.62.91-.62a8 8 0 0 1 2.74.54.1.1 0 0 0 .13-.08v-1.6a.26.26 0 0 0-.19-.24 9 9 0 0 0-2.41-.43 4.18 4.18 0 0 0-2.51.68 2.21 2.21 0 0 0-.92 1.85c0 1.73 1.42 2.06 2.76 2.37l.25.06c.62.14 1.25.28 1.25.78A.5.5 0 0 1 30 33a1.24 1.24 0 0 1-.94.25 13.57 13.57 0 0 1-3-.56.1.1 0 0 0-.1.09v1.55a.26.26 0 0 0 .18.24 10.18 10.18 0 0 0 2.74.47c2.32 0 3.52-.91 3.52-2.57a2.07 2.07 0 0 0-.97-1.85z" fill="#001a73"/><path d="M44.42 34.87h-.05v-4.74c0-1-.35-1.48-1.18-1.48a2.13 2.13 0 0 0-1 .31l-.73.43a.15.15 0 0 0-.06.11v5.32h-2.1v-7.54a.22.22 0 0 1 .22-.22h1.92a.05.05 0 0 1 0 .05v.59a.06.06 0 0 0 .06.06l.06-.05a3.51 3.51 0 0 1 .84-.47 4.52 4.52 0 0 1 1.54-.32c1.71 0 2.61 1 2.61 2.84v5.07zm5.94 0v-9.3a1.72 1.72 0 0 0-.36-1.2 6.57 6.57 0 0 0-1.67-1.15c-.06 0-.07 0-.07.05v11.55h.05zM24.51 25c.19 0 .27-.1.27-.31v-.85a.36.36 0 0 0-.36-.35H17.7a.35.35 0 0 0-.35.35v.85c0 .21.08.31.27.31zm.09-2.37c.12 0 .19 0 .22-.13l.14-.38c.26-.74.71-2 .8-2.31.14-.55.17-1.1-.58-1.38l-.73-.25c-.3-.09-.59-.16-.84-.22h-.14a.46.46 0 0 0-.42.29 13.58 13.58 0 0 0-.66 1.83.18.18 0 0 0 0 .13h.86c.1 0 .15 0 .17-.1a7.23 7.23 0 0 1 .37-1 .14.14 0 0 1 .13-.08H24l.38.13a.3.3 0 0 1 .14.38s-.76 2.12-1 2.82a.19.19 0 0 0 0 .18.18.18 0 0 0 .15.06zm-3.07 0c.17 0 .18-.19.18-.19s.05-4 .06-4.51a.24.24 0 0 0-.07-.18.13.13 0 0 0-.12-.05h-1a.13.13 0 0 0-.11.05.24.24 0 0 0-.07.18c0 .53.06 4.47.06 4.51s0 .19.18.19zm-3.1 0c.07 0 .12 0 .14-.06a.21.21 0 0 0 0-.18c-.22-.7-1-2.8-1-2.82a.31.31 0 0 1 .15-.38l.38-.13h.07a.14.14 0 0 1 .14.08 7.25 7.25 0 0 1 .36 1c0 .07.08.1.18.1h.74a.12.12 0 0 0 .11 0 .14.14 0 0 0 0-.13 12.33 12.33 0 0 0-.66-1.83.43.43 0 0 0-.41-.29h-.15c-.25.06-.54.13-.84.22l-.73.25c-.76.28-.73.83-.58 1.38.09.33.53 1.57.8 2.31.06.16.1.29.14.38a.19.19 0 0 0 .21.13zm2.63-5.74a.2.2 0 0 0 .13-.05A5.32 5.32 0 0 0 22 16a.14.14 0 0 0 0-.2 5.17 5.17 0 0 0-.91-.9h-.16a4.85 4.85 0 0 0-.91.9.14.14 0 0 0 0 .2 5.32 5.32 0 0 0 .85.86.18.18 0 0 0 .13.05z" fill="#fff"/></svg>